inDegrees=no
nColumns=24
nRows=25
DataType=double
version=3
OpenSimVersion=4.5
endheader
time	pelvis_tilt	pelvis_list	pelvis_rotation	pelvis_tz	pelvis_ty	pelvis_tx	hip_flexion_r	hip_adduction_r	hip_rotation_r	knee_angle_r	ankle_angle_r	subtalar_angle_r	mtp_angle_r	hip_flexion_l	hip_adduction_l	hip_rotation_l	knee_angle_l	ankle_angle_l	subtalar_angle_l	mtp_angle_l	lumbar_extension	lumbar_bending	lumbar_rotation
0	-0.002770750586947993	-0.0582523706938456	-0.05111015711689407	0	0.88465963	-0	-0.2122354659163589	0.09792809396578457	-0.2289739358028018	-0.217427762321578	0.3367573104681197	0.0411100604619959	0	0.4617939157972126	-0.1031797282494458	-0.3160973281786787	-0.1858429420192938	0.0209875280556299	0.0418317350836067	0	-0.1521473144109953	0.03419022302598593	0.1332684505715912
0.009999999999999787	-0.004506096621257851	-0.05870518314476577	-0.05603827486403086	-0.001179600000000003	0.88341242	0.01024088	-0.2203631092429267	0.09448094931257493	-0.2189749331734862	-0.2224594742984466	0.3321268449738957	0.03815196980609861	0	0.4628393982133533	-0.1057073823145578	-0.3117954861914566	-0.2084231369480424	-0.0009330160171360264	0.006834087664530235	0	-0.1495227451795798	0.03320927485706945	0.1368957872055669
0.02000000000000002	-0.003961100595809461	-0.05631894837100941	-0.05778219511059138	-0.002426570000000017	0.88240094	0.02093202	-0.2299639506081166	0.08786039866776893	-0.218824855103634	-0.230143894403063	0.3274850358867311	0.03893114813964073	0	0.4669122140818714	-0.1066470049265114	-0.3255342154083313	-0.2376362289807256	-0.02641173438707598	-0.005017153836511885	0	-0.149079674848471	0.02859209411097983	0.1345206363453028
0.0299999999999998	-0.00881122204022894	-0.0481051316820148	-0.06799149692695355	-0.00327686000000002	0.88208748	0.03099542	-0.2291602233459805	0.07327932398653092	-0.2060259150031234	-0.2436944291300184	0.3212102311270209	0.04054556513136486	0	0.4622135013269725	-0.1000791974335689	-0.3311142103524092	-0.232884869067072	-0.07930721544616523	-0.04724609548914351	0	-0.1426485922603396	0.01650614143026122	0.1430307961536473
0.04000000000000004	-0.01063538740272722	-0.04181404001233033	-0.0679495405873019	-0.004867709999999997	0.8817928900000001	0.04090737	-0.2301309288756487	0.06246065033782932	-0.2050117656103792	-0.2602493467532863	0.3131658558882695	0.03803538425552633	0	0.4636852058873537	-0.09441208507800947	-0.3206584512181223	-0.2471821521647381	-0.09610189453383323	-0.05529969636378804	0	-0.1417124540237047	0.007772408609927697	0.1361980604211557
0.04999999999999982	-0.01121840364003527	-0.03385977248226113	-0.06766763707345715	-0.006426870000000001	0.8819301500000001	0.05115703	-0.234711724917355	0.05091656653931888	-0.1963001784002597	-0.2717514616664716	0.3041564741434564	0.0398298576159337	0	0.4647307774898191	-0.08708449736443034	-0.3100136251038229	-0.2688581705478448	-0.1031688822498752	-0.05392462649529955	0	-0.1410817342690018	-0.003147856989341051	0.1341202965612047
0.06000000000000005	-0.01061888417421308	-0.02372612926934923	-0.06429336812377981	-0.008383350000000012	0.88244113	0.06163421	-0.2376279510586164	0.0373155198894157	-0.1888273356596833	-0.2890381831041972	0.2901913469246652	0.03990939593513852	0	0.4663404121048599	-0.07630075979683301	-0.3025659231329898	-0.2950926693673747	-0.1055425588305201	-0.05668008512317199	0	-0.1413353169957484	-0.0163611393014726	0.1284092692782041
0.06999999999999984	-0.01092833135768793	-0.009758416379592245	-0.05837374079544438	-0.01082231	0.88287923	0.07276057000000001	-0.238457968738874	0.01902577500932854	-0.1883593188139769	-0.3100911023637141	0.2689103670625866	0.02996776873605414	0	0.4669327981460037	-0.05814060578823935	-0.2935985549539308	-0.3197808394563604	-0.08759477299465063	-0.09288175473352084	0	-0.1383429828053941	-0.03340865394043443	0.1161927136095588
0.08000000000000007	-0.00790267555025671	-0.0001613073680439126	-0.05355648209962152	-0.01339596000000001	0.88369882	0.08359112	-0.2381759046821958	0.004369548021295987	-0.1821272624036357	-0.3393960212297995	0.2456250161809327	0.02930024766687544	0	0.4642752170589843	-0.04485793494463504	-0.2875694274521202	-0.3455532634036222	-0.07772509018719564	-0.1063817283192435	0	-0.1414626827469786	-0.0437435334905904	0.1041161984477045
0.08999999999999986	-0.004529938163147495	0.009522758863500029	-0.04901227572297789	-0.01628106000000001	0.88464845	0.09461233000000001	-0.2373673156308954	-0.01098339939430114	-0.1746912796205981	-0.3700901055924785	0.220402466766625	0.03010562339248999	0	0.4584743531415275	-0.02926839034657171	-0.2755539600677763	-0.3669175096081879	-0.06205609069666575	-0.1188180575926292	0	-0.1439396808994794	-0.05415613412313401	0.09563200337904314
0.1000000000000001	-0.002474135425602101	0.01866711555908531	-0.04289249479109458	-0.01952166000000002	0.88568155	0.10581558	-0.233320451237558	-0.02579222767468549	-0.170617586200532	-0.4030049079745526	0.1899760288192723	0.03189395755725347	0	0.4518240835538173	-0.0120748902603207	-0.2616694494326018	-0.3831322971177614	-0.04675644441469406	-0.1409589013123721	0	-0.1438806016788323	-0.06392549802317823	0.08819975996392791
0.1099999999999999	-0.001206598373784083	0.0245394541948869	-0.03834793665714518	-0.02260017	0.8868062400000001	0.11624732	-0.2214982120472292	-0.03806280547247027	-0.1651611586476332	-0.4461308994698915	0.1569742584259005	0.03411960491005513	0	0.4425185416006222	0.001468117036103743	-0.2510875715848354	-0.3909328760399479	-0.03629946546979291	-0.1583455404063134	0	-0.1452753834704258	-0.06886773569594336	0.08084513064251718
0.1200000000000001	-0.0005755957804698971	0.02858091508297548	-0.03408649064285438	-0.02550113000000001	0.88806102	0.12644618	-0.2049725820960073	-0.0479432918679951	-0.1589150467517598	-0.4935924380528353	0.1175900170528555	0.03385805667513535	0	0.4301878038743175	0.01282486661748307	-0.2447984254546614	-0.3917857130275107	-0.02516784713035881	-0.1679300577070094	0	-0.1462890113587895	-0.07183721305441358	0.07372195187667435
0.1299999999999999	-0.003577399975764399	0.03197317396112458	-0.03482894807710951	-0.02760247000000002	0.88927973	0.13625993	-0.1791249142121651	-0.05731032002540864	-0.1484298512433746	-0.5457046553116695	0.06807520192843207	0.02949821757140236	0	0.4178965114617725	0.0212664822846469	-0.2425305824982648	-0.3852837747841373	-0.01544917265324733	-0.1785122210906415	0	-0.1432254017615081	-0.07555934689764555	0.07187927828191346
0.1400000000000001	-0.005665062443519743	0.03586696034858964	-0.03583484667652984	-0.02952942	0.8904731100000001	0.14586303	-0.1499612673571909	-0.06677221625244603	-0.1387556725392793	-0.6022752796673416	0.01797053166481318	0.02597566893492003	0	0.4056895423631097	0.02932948542250485	-0.2409554354147105	-0.3811404673360592	-0.005057931185556704	-0.1861662345926285	0	-0.1410642890049965	-0.08029675848898314	0.07060302214888879
0.1499999999999999	-0.008241323033976114	0.03948538004550664	-0.03966501217456607	-0.03117952000000002	0.89165488	0.15519694	-0.1170332643518522	-0.07605060768926411	-0.1272760694063851	-0.6605333761339034	-0.03110396690899524	0.02220845620416879	0	0.3938861460964513	0.03548414991955533	-0.2432638511675636	-0.3767037190771065	0.005549041355260829	-0.1916210583624777	0	-0.1385383401265637	-0.0846713629036551	0.07184444849136067
0.1600000000000001	-0.01165783902672571	0.04515593349046497	-0.04474953598565259	-0.03260141	0.892656	0.16424042	-0.08116891312977288	-0.08637207368598682	-0.113735277805446	-0.7198213903448694	-0.06716014709462831	0.006324601097664786	0	0.383695778237564	0.04241637430633255	-0.2496597599607467	-0.3729322878855532	0.01628310964487321	-0.1933226629279193	0	-0.1348692382871865	-0.09162329921353726	0.07321846976603455
0.1699999999999999	-0.01379525232167069	0.05066949761117887	-0.04977058994363501	-0.03400964000000001	0.8936872300000001	0.17332367	-0.04588400162004481	-0.0962579503563735	-0.102453249434536	-0.7788999388656573	-0.08816560299780177	-0.01264435943025406	0	0.3736239917132488	0.04846118062441258	-0.2586355156685921	-0.3723631882018225	0.0288607102312385	-0.1917206704115414	0	-0.1324040443200157	-0.09789631588342888	0.07309111815197136
0.1800000000000002	-0.01862758537412263	0.05514774588591122	-0.05560653409656768	-0.03537165	0.89448724	0.18215485	-0.006599522219846279	-0.1040761768262258	-0.09054088405962807	-0.8360352796851768	-0.08734618016423547	-0.04591957300099679	0	0.3659605590183547	0.05280195933645038	-0.2693712268366294	-0.3700878844864723	0.03605981814992593	-0.1817522276247635	0	-0.1272336202064497	-0.1027935027684757	0.07575899685611043
0.1899999999999999	-0.0166343914774643	0.05946501153900197	-0.05659151926960815	-0.03735745000000001	0.89591315	0.19134707	0.02202951161021909	-0.1141170581073443	-0.09076009217769081	-0.8854588654024008	-0.07754572741235716	-0.07964847339162238	0	0.350191996522513	0.0601657987603239	-0.2747640702995489	-0.3670720942927017	0.0510140032100029	-0.1790685180861772	0	-0.129071262366043	-0.1060990912709718	0.06860242505475504
0.2000000000000002	-0.01408131967336499	0.06312087872346034	-0.05835739667456338	-0.03924428000000002	0.89744968	0.20045726	0.05044074074147325	-0.1230932894174108	-0.09111354945102063	-0.930439952524386	-0.06972321005053886	-0.1187881772067692	0	0.3319910653394075	0.06721460957033802	-0.280377171870609	-0.3597464280120961	0.06052592406406096	-0.1744198568363693	0	-0.132141348007514	-0.1088256962901833	0.06298054430302441
0.21	-0.01297350863619477	0.06471661230537955	-0.05883882672110096	-0.04109657	0.89901159	0.20940792	0.08070728994871536	-0.1275015540775038	-0.08882003200319541	-0.9712387436371982	-0.06415857487654317	-0.1524545592054567	0	0.3146013827403166	0.07277144678776873	-0.2838667833515794	-0.3503291715477382	0.06849749795452025	-0.1697406339986944	0	-0.1336776726853186	-0.1087757231503755	0.05500331606938743
0.2199999999999998	-0.01092866555609953	0.06506631638137153	-0.05874217655300071	-0.04288451000000001	0.9006569800000001	0.21835143	0.108783321615807	-0.1308127031989968	-0.0895662663744415	-1.004879084450781	-0.06213594684032735	-0.1791718031806517	0	0.2959896584726239	0.07747935917315499	-0.2854748016171999	-0.3404012671744305	0.07578490609432335	-0.1671273502407553	0	-0.1362918825149588	-0.1075440345233993	0.04710595968737531
0.23	-0.00856723419221689	0.06138028047764699	-0.05772152337740667	-0.04465620000000001	0.90251824	0.22736806	0.1345617678216529	-0.1292429682069201	-0.09060793838775921	-1.031651870736894	-0.05966035193254512	-0.1908156691978279	0	0.2750416383880739	0.07911714682169502	-0.28130936182341	-0.3270768005821629	0.08054023994815092	-0.1646838988872741	0	-0.1387457540076732	-0.1011135179455443	0.03627959315092971
0.2399999999999998	-0.007089739539833909	0.06214012094266315	-0.05415490992161646	-0.04658833000000001	0.90398481	0.23633935	0.1609661838686423	-0.1340875122965353	-0.09751593516105779	-1.055531305515988	-0.05154016587427238	-0.2092008530447372	0	0.2553236055835452	0.08576068310368395	-0.2788974890611511	-0.3129987037859437	0.0863685800604231	-0.1644708734235536	0	-0.1400491713035832	-0.1001341264357877	0.02641440700975956
